{
  "accessors": [
    {
      "bufferView": 2,
      "componentType": 5126,
      "count": 5,
      "max": [
        0.51792198419570923,
        0.15781800448894501,
        1.6446219682693481
      ],
      "min": [
        -4.1952929496765137,
        -3.5414190292358398,
        1.6159249544143677
      ],
      "type": "VEC3"
    },
    {
      "bufferView": 1,
      "componentType": 5126,
      "count": 5,
      "max": [
        0,
        0
      ],
      "min": [
        0,
        0
      ],
      "type": "VEC2"
    },
    {
      "bufferView": 0,
      "componentType": 5125,
      "count": 8,
      "max": [
        4
      ],
      "min": [
        0
      ],
      "type": "SCALAR"
    },
    {
      "bufferView": 2,
      "byteOffset": 60,
      "componentType": 5126,
      "count": 65532,
      "max": [
        4.6792430877685547,
        5.0004491806030273,
        4.7024550437927246
      ],
      "min": [
        -4.6368279457092285,
        -4.403831958770752,
        1.6159249544143677
      ],
      "type": "VEC3"
    },
    {
      "bufferView": 2,
      "byteOffset": 786444,
      "componentType": 5126,
      "count": 65532,
      "max": [
        0.99961763620376587,
        0.99965935945510864,
        0.99999904632568359
      ],
      "min": [
        -0.99990344047546387,
        -0.99999868869781494,
        -0.99978917837142944
      ],
      "type": "VEC3"
    },
    {
      "bufferView": 1,
      "byteOffset": 40,
      "componentType": 5126,
      "count": 65532,
      "max": [
        0.93751901388168335,
        0.94552302360534668
      ],
      "min": [
        0,
        0
      ],
      "type": "VEC2"
    },
    {
      "bufferView": 0,
      "byteOffset": 32,
      "componentType": 5125,
      "count": 370224,
      "max": [
        65531
      ],
      "min": [
        0
      ],
      "type": "SCALAR"
    },
    {
      "bufferView": 2,
      "byteOffset": 1572828,
      "componentType": 5126,
      "count": 65534,
      "max": [
        4.7416491508483887,
        5.0272188186645508,
        4.7024550437927246
      ],
      "min": [
        -4.6605939865112305,
        -4.403831958770752,
        1.6159249544143677
      ],
      "type": "VEC3"
    },
    {
      "bufferView": 2,
      "byteOffset": 2359236,
      "componentType": 5126,
      "count": 65534,
      "max": [
        0.99998950958251953,
        0.9999089241027832,
        0.99999868869781494
      ],
      "min": [
        -0.99999809265136719,
        -0.99993038177490234,
        -0.99998867511749268
      ],
      "type": "VEC3"
    },
    {
      "bufferView": 1,
      "byteOffset": 524296,
      "componentType": 5126,
      "count": 65534,
      "max": [
        0.99999499320983887,
        0.9999079704284668
      ],
      "min": [
        0,
        0
      ],
      "type": "VEC2"
    },
    {
      "bufferView": 0,
      "byteOffset": 1480928,
      "componentType": 5125,
      "count": 353853,
      "max": [
        65533
      ],
      "min": [
        0
      ],
      "type": "SCALAR"
    },
    {
      "bufferView": 2,
      "byteOffset": 3145644,
      "componentType": 5126,
      "count": 5496,
      "max": [
        4.6649751663208008,
        4.9935832023620605,
        3.1025280952453613
      ],
      "min": [
        -4.5665020942687988,
        -4.1054210662841797,
        1.7070640325546265
      ],
      "type": "VEC3"
    },
    {
      "bufferView": 2,
      "byteOffset": 3211596,
      "componentType": 5126,
      "count": 5496,
      "max": [
        0.99570274353027344,
        0.99125200510025024,
        0.99997520446777344
      ],
      "min": [
        -0.99973732233047485,
        -0.99999868869781494,
        -0.61056226491928101
      ],
      "type": "VEC3"
    },
    {
      "bufferView": 1,
      "byteOffset": 1048568,
      "componentType": 5126,
      "count": 5496,
      "max": [
        0.4678879976272583,
        0.41052401065826416
      ],
      "min": [
        0.0017810000572353601,
        0.00030200000037439167
      ],
      "type": "VEC2"
    },
    {
      "bufferView": 0,
      "byteOffset": 2896340,
      "componentType": 5125,
      "count": 8991,
      "max": [
        5495
      ],
      "min": [
        0
      ],
      "type": "SCALAR"
    }
  ],
  "asset": {
    "extras": {
      "author": "Polybius (https://sketchfab.com/Polybius)",
      "license": "CC-BY-4.0 (http://creativecommons.org/licenses/by/4.0/)",
      "source": "https://sketchfab.com/3d-models/burger-and-chips-meal-7dd31bfbb37b4b568252d835b6369c9f",
      "title": "Burger and chips meal"
    },
    "generator": "Sketchfab-7.91.0",
    "version": "2.0"
  },
  "bufferViews": [
    {
      "buffer": 0,
      "byteLength": 2932304,
      "byteOffset": 0,
      "name": "floatBufferViews",
      "target": 34963
    },
    {
      "buffer": 0,
      "byteLength": 1092536,
      "byteOffset": 2932304,
      "byteStride": 8,
      "name": "floatBufferViews",
      "target": 34962
    },
    {
      "buffer": 0,
      "byteLength": 3277548,
      "byteOffset": 4024840,
      "byteStride": 12,
      "name": "floatBufferViews",
      "target": 34962
    }
  ],
  "buffers": [
    {
      "byteLength": 7302388,
      "uri": "scene.bin"
    }
  ],
  "extensionsUsed": [
    "KHR_materials_unlit"
  ],
  "images": [
    {
      "uri": "textures/mesh_baseColor.png"
    }
  ],
  "materials": [
    {
      "doubleSided": true,
      "emissiveFactor": [
        0,
        0,
        0
      ],
      "extensions": {
        "KHR_materials_unlit": {}
      },
      "name": "mesh",
      "pbrMetallicRoughness": {
        "baseColorFactor": [
          1,
          1,
          1,
          1
        ],
        "baseColorTexture": {
          "index": 0,
          "texCoord": 0
        },
        "metallicFactor": 0,
        "roughnessFactor": 1
      }
    }
  ],
  "meshes": [
    {
      "primitives": [
        {
          "attributes": {
            "POSITION": 0,
            "TEXCOORD_0": 1
          },
          "indices": 2,
          "material": 0,
          "mode": 1
        }
      ]
    },
    {
      "primitives": [
        {
          "attributes": {
            "NORMAL": 4,
            "POSITION": 3,
            "TEXCOORD_0": 5
          },
          "indices": 6,
          "material": 0,
          "mode": 4
        }
      ]
    },
    {
      "primitives": [
        {
          "attributes": {
            "NORMAL": 8,
            "POSITION": 7,
            "TEXCOORD_0": 9
          },
          "indices": 10,
          "material": 0,
          "mode": 4
        }
      ]
    },
    {
      "primitives": [
        {
          "attributes": {
            "NORMAL": 12,
            "POSITION": 11,
            "TEXCOORD_0": 13
          },
          "indices": 14,
          "material": 0,
          "mode": 4
        }
      ]
    }
  ],
  "nodes": [
    {
      "children": [
        1
      ],
      "name": "RootNode (gltf orientation matrix)",
      "rotation": [
        -0.70710678118654746,
        -0,
        -0,
        0.70710678118654757
      ]
    },
    {
      "children": [
        2
      ],
      "name": "RootNode (model correction matrix)"
    },
    {
      "children": [
        3,
        4,
        5,
        6
      ],
      "name": "burger.obj.cleaner.materialmerger.gles"
    },
    {
      "mesh": 0,
      "name": ""
    },
    {
      "mesh": 1,
      "name": ""
    },
    {
      "mesh": 2,
      "name": ""
    },
    {
      "mesh": 3,
      "name": ""
    }
  ],
  "samplers": [
    {
      "magFilter": 9729,
      "minFilter": 9987,
      "wrapS": 10497,
      "wrapT": 10497
    }
  ],
  "scene": 0,
  "scenes": [
    {
      "name": "OSG_Scene",
      "nodes": [
        0
      ]
    }
  ],
  "textures": [
    {
      "sampler": 0,
      "source": 0
    }
  ]
}

