{
  "accessors": [
    {
      "bufferView": 2,
      "componentType": 5126,
      "count": 38718,
      "max": [
        4.2015671730041504,
        4.8266744613647461,
        11.832919120788574
      ],
      "min": [
        -3.3943343162536621,
        -4.9311747550964355,
        1.0833072662353516
      ],
      "type": "VEC3"
    },
    {
      "bufferView": 2,
      "byteOffset": 464616,
      "componentType": 5126,
      "count": 38718,
      "max": [
        0.99999678134918213,
        0.99996298551559448,
        0.99976873397827148
      ],
      "min": [
        -0.99997490644454956,
        -0.99998056888580322,
        -0.99996811151504517
      ],
      "type": "VEC3"
    },
    {
      "bufferView": 3,
      "componentType": 5126,
      "count": 38718,
      "max": [
        0.99999994039535522,
        0.99529093503952026,
        0.99999994039535522,
        1
      ],
      "min": [
        -1,
        -0.99999862909317017,
        -1,
        -1
      ],
      "type": "VEC4"
    },
    {
      "bufferView": 1,
      "componentType": 5126,
      "count": 38718,
      "max": [
        0.99975597858428955,
        0.96850597858428955
      ],
      "min": [
        0.00024399999529123306,
        0.00024399999529123306
      ],
      "type": "VEC2"
    },
    {
      "bufferView": 0,
      "componentType": 5125,
      "count": 150006,
      "max": [
        38717
      ],
      "min": [
        0
      ],
      "type": "SCALAR"
    }
  ],
  "asset": {
    "extras": {
      "author": "Austin Beaulier (https://sketchfab.com/Austin.Beaulier)",
      "license": "CC-BY-4.0 (http://creativecommons.org/licenses/by/4.0/)",
      "source": "https://sketchfab.com/3d-models/whataburger-fries-photogrammetry-3004b4ab3dc24e8aa3c15a73f6d1366c",
      "title": "Whataburger Fries (photogrammetry)"
    },
    "generator": "Sketchfab-6.39.0",
    "version": "2.0"
  },
  "bufferViews": [
    {
      "buffer": 0,
      "byteLength": 600024,
      "byteOffset": 0,
      "name": "floatBufferViews",
      "target": 34963
    },
    {
      "buffer": 0,
      "byteLength": 309744,
      "byteOffset": 600024,
      "byteStride": 8,
      "name": "floatBufferViews",
      "target": 34962
    },
    {
      "buffer": 0,
      "byteLength": 929232,
      "byteOffset": 909768,
      "byteStride": 12,
      "name": "floatBufferViews",
      "target": 34962
    },
    {
      "buffer": 0,
      "byteLength": 619488,
      "byteOffset": 1839000,
      "byteStride": 16,
      "name": "floatBufferViews",
      "target": 34962
    }
  ],
  "buffers": [
    {
      "byteLength": 2458488,
      "uri": "scene.bin"
    }
  ],
  "extensionsUsed": [
    "KHR_materials_unlit"
  ],
  "images": [
    {
      "uri": "textures/model_Material_u1_v1_baseColor.jpeg"
    }
  ],
  "materials": [
    {
      "doubleSided": true,
      "emissiveFactor": [
        0,
        0,
        0
      ],
      "extensions": {
        "KHR_materials_unlit": {}
      },
      "name": "model_Material_u1_v1",
      "pbrMetallicRoughness": {
        "baseColorFactor": [
          1,
          1,
          1,
          1
        ],
        "baseColorTexture": {
          "index": 0,
          "texCoord": 0
        },
        "metallicFactor": 0,
        "roughnessFactor": 1
      }
    }
  ],
  "meshes": [
    {
      "primitives": [
        {
          "attributes": {
            "NORMAL": 1,
            "POSITION": 0,
            "TANGENT": 2,
            "TEXCOORD_0": 3
          },
          "indices": 4,
          "material": 0,
          "mode": 4
        }
      ]
    }
  ],
  "nodes": [
    {
      "children": [
        1
      ],
      "name": "RootNode (gltf orientation matrix)",
      "rotation": [
        -0.70710678118654746,
        -0,
        -0,
        0.70710678118654757
      ]
    },
    {
      "children": [
        2
      ],
      "matrix": [
        -0.24813008308410645,
        0.9686926007270813,
        -0.0081275962293148041,
        0,
        -0.96817338466644287,
        -0.2482631504535675,
        -0.031712889671325684,
        0,
        -0.032737825065851212,
        3.4694469519536142e-18,
        0.99946397542953491,
        0,
        0.66462129354476929,
        -0.45620715618133545,
        0.0050853793509304523,
        1
      ],
      "name": "RootNode (model correction matrix)"
    },
    {
      "children": [
        3
      ],
      "name": "model.obj.cleaner.materialmerger.gles"
    },
    {
      "mesh": 0,
      "name": ""
    }
  ],
  "samplers": [
    {
      "magFilter": 9729,
      "minFilter": 9987,
      "wrapS": 10497,
      "wrapT": 10497
    }
  ],
  "scene": 0,
  "scenes": [
    {
      "name": "OSG_Scene",
      "nodes": [
        0
      ]
    }
  ],
  "textures": [
    {
      "sampler": 0,
      "source": 0
    }
  ]
}

